<svg xmlns="http://www.w3.org/2000/svg" xmlns:xlink="http://www.w3.org/1999/xlink" width="700" zoomAndPan="magnify" viewBox="0 0 525 320.999992" height="428" preserveAspectRatio="xMidYMid meet" version="1.0"><defs><g/><clipPath id="b46a728171"><path d="M 7.613281 8.964844 L 162.085938 8.964844 L 162.085938 240.714844 L 7.613281 240.714844 Z M 7.613281 8.964844 " clip-rule="nonzero"/></clipPath></defs><path fill="#f8f9ed" d="M 123.4375 11.441406 C 122.933594 12.109375 121.992188 13.648438 122.441406 14.433594 C 120.386719 17.976562 109.832031 13.421875 108.226562 17.425781 C 107.621094 18.929688 108.957031 20.488281 109.472656 22.160156 C 107.277344 25.246094 101.386719 24.753906 100.496094 28.386719 C 99.859375 30.988281 102.609375 31.804688 102.742188 33.871094 C 102.941406 37.023438 96.527344 38.855469 99.25 43.839844 C 99.582031 44.917969 101.128906 44.785156 101.492188 45.832031 C 100.3125 48.777344 97.035156 50.773438 98.003906 55.050781 C 98.800781 56.167969 100.734375 56.144531 102.242188 56.546875 C 103.074219 58.601562 101.394531 59.917969 101.742188 62.277344 C 104.875 63.03125 108.394531 63.941406 110.96875 63.277344 C 111.914062 60.570312 113.257812 57.484375 112.714844 54.054688 C 114.609375 54.957031 113.949219 57.21875 113.710938 58.542969 C 113.304688 60.8125 112.308594 63.339844 111.46875 65.769531 C 109.105469 72.59375 107.398438 80.410156 105.234375 87.449219 C 103.84375 91.972656 102.238281 96.628906 100.746094 101.152344 C 98.886719 106.796875 96.511719 112.0625 95.757812 117.105469 C 97.214844 119.804688 99.535156 121.632812 102.492188 122.835938 C 111.015625 105.023438 118.925781 86.59375 126.679688 68.011719 C 129.117188 65.085938 130.195312 62.332031 132.167969 59.039062 C 132.640625 59.148438 132.792969 59.578125 133.410156 59.539062 C 132.027344 62.222656 129.792969 64.058594 128.675781 67.015625 C 129.820312 67.945312 130.21875 69.625 131.167969 70.75 C 132.257812 71.117188 133.496094 71.355469 134.660156 71 C 135.792969 69.726562 136.011719 67.535156 137.152344 66.265625 C 139.667969 67.335938 143.125 68.5 145.878906 66.765625 C 146.816406 65.152344 146.289062 63.597656 146.628906 61.53125 C 150.4375 62.050781 155.289062 61.027344 155.855469 57.792969 C 156.113281 56.316406 154.742188 55.109375 155.605469 53.308594 C 156.214844 52.421875 157.910156 52.617188 158.597656 51.8125 C 159.132812 48.914062 158.859375 46.238281 158.097656 44.089844 C 157.433594 43.507812 156.28125 43.414062 155.355469 43.089844 C 156.972656 39.167969 156.394531 33.5 153.859375 31.628906 C 152.660156 31.605469 151.273438 32.402344 150.617188 32.125 C 150.207031 28.183594 149.4375 19.320312 145.632812 18.667969 C 144.332031 18.449219 143.613281 19.699219 142.636719 19.667969 C 141.710938 19.632812 141.664062 18.71875 140.394531 18.667969 C 140.511719 13.753906 135.273438 10.328125 132.167969 13.683594 C 129.84375 12.960938 127.453125 10.117188 123.4375 11.441406 M 138.398438 28.140625 C 139.933594 27.84375 140.511719 26.597656 142.636719 26.894531 C 144.394531 27.820312 144.367188 31.207031 144.382812 33.125 C 145.445312 33.105469 146.128906 32.707031 147.375 32.875 C 150.476562 34.578125 149.179688 39.882812 147.128906 41.347656 C 148.105469 39.492188 149.625 34.4375 146.628906 33.621094 C 145.617188 34.023438 144.445312 34.261719 143.386719 34.617188 C 142.800781 32.574219 144.445312 28.261719 141.640625 27.890625 C 140.339844 28.253906 139.496094 29.070312 137.898438 29.136719 C 136.308594 28.320312 136.386719 25.832031 134.90625 24.902344 C 133.339844 27.050781 129.214844 26.074219 127.429688 26.144531 C 128.828125 24.644531 130.246094 25.128906 132.664062 25.398438 C 135.328125 21.355469 136.457031 26.574219 138.398438 28.140625 M 120.445312 34.121094 C 119.230469 34.003906 119.519531 32.386719 118.699219 31.875 C 117.957031 32.703125 116.46875 33.574219 114.960938 32.875 C 114.035156 33.28125 114.128906 34.703125 112.714844 34.617188 C 112.898438 32.789062 114.371094 31.265625 116.457031 32.125 C 118.164062 29.859375 120.417969 30.976562 120.445312 34.121094 M 128.925781 31.128906 C 130.015625 31.78125 130.3125 33.230469 131.667969 33.621094 C 133.074219 33.371094 133.289062 31.921875 135.15625 32.125 C 136.101562 33.214844 137.574219 34.980469 136.902344 36.859375 C 135.582031 36.1875 136.121094 33.652344 134.660156 33.125 C 133.371094 33.582031 132.574219 34.53125 131.167969 34.867188 C 130.003906 34.203125 129.878906 32.5 128.425781 32.125 C 126.449219 32.5625 126.132812 34.652344 124.183594 35.117188 C 124.800781 32.824219 126.414062 31.527344 128.925781 31.128906 M 133.164062 44.335938 C 136.851562 42.957031 138.0625 46.039062 139.398438 47.828125 C 143.238281 46.292969 144.855469 52.792969 142.636719 53.808594 C 142.035156 51.917969 143.011719 48.453125 140.394531 48.574219 C 139.492188 48.667969 139.769531 49.941406 138.398438 49.570312 C 137.777344 47.363281 137.402344 44.921875 134.410156 45.085938 C 133.699219 45.207031 134.050781 46.386719 132.914062 46.082031 C 131.617188 45.132812 131.40625 43.101562 129.671875 42.59375 C 128.839844 44.089844 126.390625 44.566406 125.183594 43.089844 C 124.535156 43.335938 122.921875 44.953125 122.691406 43.339844 C 123.761719 42.050781 125.996094 41.800781 127.179688 43.089844 C 129.300781 40.453125 131.660156 42.464844 133.164062 44.335938 M 119.199219 46.582031 C 117.5625 46.554688 118.171875 44.285156 116.707031 44.089844 C 115.691406 44.40625 115.9375 45.980469 115.207031 46.582031 C 113.132812 46.703125 112.035156 45.230469 110.222656 45.832031 C 108.976562 46.414062 109.785156 49.046875 107.726562 48.824219 C 107.746094 45.390625 111.386719 43.757812 114.460938 45.582031 C 115.183594 41.59375 119.628906 43.332031 119.199219 46.582031 M 127.675781 56.046875 C 126.976562 56.679688 126.738281 57.773438 126.429688 58.789062 C 125.917969 58.640625 124.699219 59.191406 124.933594 58.292969 C 126.023438 57.96875 125.894531 56.429688 126.429688 55.550781 C 127.046875 55.515625 127.640625 55.503906 127.675781 56.046875 M 116.953125 63.277344 C 116.585938 61.90625 117.480469 59.652344 117.703125 58.042969 L 118.699219 58.042969 C 118.386719 60.292969 117.964844 62.351562 116.953125 63.277344 M 117.453125 72 C 115.6875 73.140625 116.519531 76.878906 114.460938 77.730469 C 114.355469 75.683594 115.835938 73.144531 116.457031 71 L 117.203125 71 C 117.28125 71.335938 117.558594 71.476562 117.453125 72 M 108.226562 96.667969 C 109.628906 94.25 110.257812 91.054688 111.96875 88.945312 C 112.316406 91.222656 110.492188 95.371094 108.226562 96.667969 M 108.726562 90.4375 C 107.765625 91.722656 107.296875 93.496094 106.230469 94.675781 C 105.71875 93.074219 106.625 89.949219 108.726562 90.4375 M 104.238281 103.398438 C 103.441406 102.285156 104.730469 100.015625 106.230469 99.660156 C 105.542969 100.878906 105.789062 103.035156 104.238281 103.398438 M 101.246094 118.097656 C 102.113281 115.480469 102.445312 112.320312 103.988281 110.375 C 103.988281 112.886719 103.203125 116.71875 101.246094 118.097656 " fill-opacity="1" fill-rule="evenodd"/><path fill="#000000" d="M 132.664062 25.398438 C 130.246094 25.125 128.828125 24.644531 127.429688 26.144531 C 129.214844 26.074219 133.34375 27.050781 134.910156 24.898438 C 136.390625 25.828125 136.308594 28.316406 137.902344 29.136719 C 139.496094 29.070312 140.339844 28.25 141.640625 27.890625 C 144.445312 28.261719 142.800781 32.574219 143.386719 34.617188 C 144.445312 34.261719 145.617188 34.023438 146.628906 33.621094 C 149.628906 34.4375 148.105469 39.492188 147.128906 41.347656 C 149.179688 39.882812 150.476562 34.578125 147.378906 32.875 C 146.128906 32.707031 145.445312 33.105469 144.382812 33.121094 C 144.371094 31.207031 144.394531 27.820312 142.636719 26.894531 C 140.515625 26.597656 139.933594 27.84375 138.402344 28.140625 C 136.457031 26.574219 135.328125 21.355469 132.664062 25.398438 " fill-opacity="1" fill-rule="evenodd"/><path fill="#000000" d="M 116.457031 32.125 C 114.371094 31.265625 112.898438 32.789062 112.714844 34.617188 C 114.128906 34.703125 114.035156 33.28125 114.960938 32.875 C 116.46875 33.574219 117.957031 32.703125 118.699219 31.875 C 119.519531 32.386719 119.230469 34.003906 120.445312 34.121094 C 120.417969 30.976562 118.164062 29.859375 116.457031 32.125 " fill-opacity="1" fill-rule="evenodd"/><path fill="#000000" d="M 124.183594 35.117188 C 126.132812 34.652344 126.449219 32.566406 128.425781 32.125 C 129.878906 32.5 130.003906 34.203125 131.167969 34.867188 C 132.578125 34.53125 133.371094 33.582031 134.660156 33.121094 C 136.121094 33.652344 135.582031 36.1875 136.902344 36.859375 C 137.574219 34.976562 136.097656 33.214844 135.15625 32.125 C 133.289062 31.921875 133.078125 33.371094 131.667969 33.625 C 130.3125 33.230469 130.015625 31.78125 128.925781 31.128906 C 126.414062 31.527344 124.800781 32.824219 124.183594 35.117188 " fill-opacity="1" fill-rule="evenodd"/><path fill="#000000" d="M 127.179688 43.089844 C 126 41.800781 123.761719 42.050781 122.691406 43.339844 C 122.921875 44.953125 124.535156 43.335938 125.183594 43.089844 C 126.390625 44.5625 128.839844 44.089844 129.671875 42.59375 C 131.40625 43.101562 131.617188 45.132812 132.914062 46.082031 C 134.050781 46.386719 133.703125 45.207031 134.410156 45.085938 C 137.402344 44.917969 137.78125 47.363281 138.398438 49.570312 C 139.769531 49.9375 139.492188 48.667969 140.394531 48.574219 C 143.011719 48.449219 142.035156 51.917969 142.636719 53.808594 C 144.855469 52.792969 143.238281 46.292969 139.398438 47.824219 C 138.0625 46.039062 136.855469 42.957031 133.164062 44.335938 C 131.660156 42.464844 129.300781 40.453125 127.179688 43.089844 " fill-opacity="1" fill-rule="evenodd"/><path fill="#000000" d="M 114.460938 45.582031 C 111.386719 43.753906 107.75 45.390625 107.726562 48.824219 C 109.785156 49.046875 108.976562 46.414062 110.222656 45.832031 C 112.035156 45.226562 113.132812 46.703125 115.210938 46.578125 C 115.9375 45.980469 115.691406 44.402344 116.707031 44.085938 C 118.171875 44.285156 117.5625 46.554688 119.199219 46.578125 C 119.628906 43.328125 115.183594 41.59375 114.460938 45.582031 " fill-opacity="1" fill-rule="evenodd"/><path fill="#000000" d="M 126.429688 55.550781 C 125.894531 56.425781 126.023438 57.96875 124.933594 58.292969 C 124.699219 59.191406 125.917969 58.640625 126.429688 58.792969 C 126.738281 57.773438 126.976562 56.679688 127.675781 56.050781 C 127.640625 55.503906 127.046875 55.515625 126.429688 55.550781 " fill-opacity="1" fill-rule="evenodd"/><path fill="#000000" d="M 118.699219 58.042969 L 117.703125 58.042969 C 117.480469 59.652344 116.585938 61.90625 116.953125 63.277344 C 117.964844 62.351562 118.386719 60.292969 118.699219 58.042969 " fill-opacity="1" fill-rule="evenodd"/><path fill="#000000" d="M 117.203125 71 L 116.457031 71 C 115.835938 73.144531 114.355469 75.683594 114.460938 77.730469 C 116.519531 76.878906 115.6875 73.140625 117.453125 71.996094 C 117.558594 71.476562 117.28125 71.339844 117.203125 71 " fill-opacity="1" fill-rule="evenodd"/><path fill="#000000" d="M 111.96875 88.941406 C 110.257812 91.054688 109.628906 94.25 108.226562 96.667969 C 110.492188 95.371094 112.316406 91.222656 111.96875 88.941406 " fill-opacity="1" fill-rule="evenodd"/><path fill="#000000" d="M 106.230469 94.675781 C 107.292969 93.496094 107.765625 91.722656 108.726562 90.4375 C 106.625 89.949219 105.71875 93.074219 106.230469 94.675781 " fill-opacity="1" fill-rule="evenodd"/><path fill="#000000" d="M 106.230469 99.660156 C 104.730469 100.015625 103.441406 102.28125 104.238281 103.398438 C 105.789062 103.035156 105.542969 100.882812 106.230469 99.660156 " fill-opacity="1" fill-rule="evenodd"/><path fill="#61ed48" d="M 16.960938 195.597656 C 15.207031 195.855469 15.253906 194.496094 13.71875 195.101562 C 9.753906 196.667969 12.605469 203.035156 14.464844 205.570312 C 18.722656 211.359375 23.792969 216.292969 30.925781 220.769531 C 35.773438 223.8125 40.527344 228.265625 45.886719 230.738281 C 54.960938 234.921875 66.851562 237.71875 76.808594 237.714844 C 81.792969 237.710938 90.988281 234.851562 87.777344 228.496094 C 93.292969 222.050781 98.347656 215.1875 103.488281 208.308594 C 108.75 201.265625 112.625 193.570312 116.707031 185.632812 C 119.65625 179.886719 123.359375 174.289062 126.679688 168.6875 C 129.996094 163.089844 133.789062 157.765625 136.652344 151.988281 C 137.078125 151.5 138.402344 151.910156 138.648438 151.242188 C 144.824219 144.96875 140.652344 134.011719 135.65625 128.816406 C 134.429688 127.539062 132.269531 125.597656 130.667969 124.578125 C 129.441406 123.800781 127.519531 123.128906 125.933594 122.085938 C 121.710938 119.316406 115.734375 116.007812 110.46875 114.609375 C 115.378906 118.765625 124.191406 121.773438 130.667969 126.820312 C 134.183594 129.5625 138.800781 133.335938 140.144531 137.289062 C 141.199219 140.390625 141.335938 145.890625 139.148438 147.753906 C 136.992188 147.925781 134.980469 148.242188 133.164062 148.75 C 113.976562 145.945312 90.285156 137.449219 76.058594 126.574219 C 73.921875 124.9375 71.472656 122.746094 70.074219 120.839844 C 67.441406 117.25 64.449219 110.726562 69.324219 106.886719 C 75.511719 104.089844 83.472656 105.382812 90.523438 106.386719 C 80.703125 101.148438 63.96875 100.121094 62.09375 112.867188 C 61.683594 115.671875 62.730469 118.355469 62.09375 121.339844 C 61.535156 123.96875 58.410156 128.058594 56.609375 130.808594 C 46.726562 145.910156 37.628906 161.757812 28.183594 177.160156 C 24.335938 183.429688 20.097656 189.320312 16.960938 195.597656 M 66.085938 129.8125 C 66.050781 130.609375 66.332031 131.71875 65.335938 131.554688 C 64.601562 131.5625 64.601562 129.558594 65.335938 129.5625 C 65.378906 129.851562 65.730469 129.832031 66.085938 129.8125 M 63.339844 132.054688 C 62.679688 132.050781 61.875 132.195312 61.847656 131.554688 C 62.085938 130.648438 63.632812 130.53125 63.339844 132.054688 M 65.585938 157.472656 C 73.574219 155.320312 80.746094 150.476562 88.027344 148.253906 C 89.433594 150.550781 92.085938 151.441406 94.261719 153.484375 C 96.523438 155.613281 98.65625 158.417969 100.496094 160.960938 C 103.359375 164.917969 105.097656 169.121094 109.222656 170.679688 C 101.867188 173.945312 91.050781 174.855469 83.539062 177.160156 C 87.457031 181.96875 94.203125 185.273438 96.757812 190.617188 C 93.261719 191.75 89.367188 192.527344 85.535156 192.859375 C 68.867188 194.304688 50.492188 196.296875 33.417969 194.851562 C 35.605469 190.445312 40.71875 189.113281 44.390625 186.378906 C 49.242188 182.765625 54.609375 179.367188 58.851562 175.164062 C 57.398438 172.757812 56.390625 170.128906 54.863281 167.691406 C 53.449219 165.429688 50.953125 163.492188 50.875 160.714844 C 55.800781 158.84375 60.796875 158.765625 65.585938 157.472656 M 114.960938 153.238281 C 115.371094 152.152344 116.640625 151.925781 117.703125 151.492188 C 118.28125 152.539062 115.996094 153.800781 114.960938 153.238281 M 123.4375 156.972656 C 122.773438 156.972656 122.011719 157.070312 121.691406 156.726562 C 121.867188 155.902344 122.699219 155.738281 123.1875 155.230469 C 123.269531 155.816406 123.582031 156.164062 123.4375 156.972656 M 23.691406 200.085938 C 22.605469 199.746094 22.789062 200.679688 22.195312 200.832031 C 21.859375 200.121094 22.480469 198.550781 23.445312 198.339844 C 23.785156 198.664062 23.691406 199.421875 23.691406 200.085938 M 21.699219 200.085938 C 21.140625 200.648438 20.449219 200.070312 19.953125 199.835938 C 19.914062 199.214844 20.34375 199.066406 20.449219 198.589844 C 21.210938 198.746094 21.726562 199.144531 21.699219 200.085938 M 36.910156 211.546875 C 37.105469 211.605469 37.199219 211.757812 37.160156 212.046875 C 37.226562 213.21875 35.191406 213.261719 34.414062 212.796875 C 34.648438 211.855469 36.382812 211.398438 36.910156 211.546875 M 38.65625 216.035156 C 39.546875 215.515625 40.328125 214.882812 41.148438 214.289062 C 41.90625 215.285156 39.25 217.964844 38.65625 216.035156 M 76.058594 226.75 C 74.933594 226.714844 74.902344 225.578125 74.5625 224.757812 C 74.933594 224.625 75.191406 224.386719 75.558594 224.257812 C 76.191406 224.765625 76.585938 225.78125 76.058594 226.75 M 71.570312 228.992188 C 70.980469 228.417969 70.320312 227.917969 70.074219 227 C 71.371094 226.746094 72.847656 228.246094 71.570312 228.992188 " fill-opacity="1" fill-rule="evenodd"/><path fill="#dddddd" d="M 108.476562 115.855469 C 106.304688 118.640625 109.972656 120.796875 111.46875 122.835938 C 112.1875 125.355469 114.734375 129.25 111.21875 130.0625 C 107.863281 130.832031 104.484375 126.507812 101.492188 124.328125 C 99.957031 123.210938 98.957031 122.269531 97.253906 120.839844 C 95.613281 119.464844 93.207031 118.234375 93.015625 117.351562 C 92.570312 115.285156 95.910156 111.558594 95.507812 108.878906 C 90.0625 107.816406 80.078125 105.316406 73.566406 106.636719 C 69.824219 107.394531 66.597656 111.542969 68.328125 115.855469 C 68.820312 117.082031 70.757812 119.824219 72.070312 121.339844 C 75.246094 125.011719 79.9375 127.859375 84.785156 130.558594 C 89.316406 133.082031 93.894531 135.78125 99.25 138.035156 C 104.566406 140.273438 110.121094 141.949219 115.457031 143.765625 C 122.636719 146.210938 130.847656 148.25 138.398438 146.257812 C 141.335938 142.617188 138.523438 135.929688 135.65625 132.800781 C 129.226562 125.792969 115.96875 119.417969 108.476562 115.855469 M 87.28125 121.585938 C 87.261719 120.65625 88.355469 120.835938 88.027344 119.59375 L 88.777344 119.59375 C 89.636719 120.65625 88.523438 122.632812 87.28125 121.585938 M 91.019531 125.824219 C 91.199219 124.839844 91.292969 123.773438 92.019531 123.332031 C 92.855469 123.964844 92.769531 126.316406 91.019531 125.824219 M 123.6875 132.800781 C 123.367188 133.257812 122.570312 133.898438 121.941406 133.300781 C 122.566406 132.765625 122.449219 131.484375 123.1875 131.058594 C 123.148438 131.847656 123.851562 131.890625 123.6875 132.800781 M 124.933594 135.542969 C 124.332031 134.816406 125.554688 134.320312 125.433594 133.300781 L 126.429688 133.300781 C 126.335938 134.453125 126.355469 135.714844 124.933594 135.542969 " fill-opacity="1" fill-rule="evenodd"/><path fill="#000000" d="M 103.988281 110.375 C 102.445312 112.320312 102.117188 115.480469 101.246094 118.097656 C 103.203125 116.71875 103.988281 112.886719 103.988281 110.375 " fill-opacity="1" fill-rule="evenodd"/><path fill="#000000" d="M 88.777344 119.59375 L 88.027344 119.59375 C 88.355469 120.835938 87.261719 120.65625 87.28125 121.585938 C 88.523438 122.632812 89.636719 120.65625 88.777344 119.59375 " fill-opacity="1" fill-rule="evenodd"/><path fill="#a8a6a1" d="M 106.730469 120.34375 C 105.738281 121.511719 105.222656 123.152344 104.238281 124.328125 C 105.863281 125.773438 107.957031 129.027344 110.472656 127.320312 C 110.488281 123.730469 109.039062 121.605469 106.730469 120.34375 " fill-opacity="1" fill-rule="evenodd"/><path fill="#000000" d="M 92.019531 123.332031 C 91.292969 123.769531 91.199219 124.839844 91.019531 125.824219 C 92.773438 126.316406 92.855469 123.964844 92.019531 123.332031 " fill-opacity="1" fill-rule="evenodd"/><path fill="#000000" d="M 65.335938 129.5625 C 64.601562 129.558594 64.601562 131.5625 65.335938 131.554688 C 66.332031 131.71875 66.050781 130.609375 66.085938 129.8125 C 65.730469 129.832031 65.378906 129.851562 65.335938 129.5625 " fill-opacity="1" fill-rule="evenodd"/><path fill="#000000" d="M 61.84375 131.554688 C 61.875 132.195312 62.679688 132.050781 63.339844 132.054688 C 63.632812 130.53125 62.085938 130.648438 61.84375 131.554688 " fill-opacity="1" fill-rule="evenodd"/><path fill="#000000" d="M 123.1875 131.058594 C 122.449219 131.484375 122.566406 132.765625 121.941406 133.300781 C 122.570312 133.898438 123.367188 133.257812 123.6875 132.800781 C 123.851562 131.890625 123.148438 131.847656 123.1875 131.058594 " fill-opacity="1" fill-rule="evenodd"/><path fill="#000000" d="M 126.429688 133.300781 L 125.433594 133.300781 C 125.554688 134.316406 124.332031 134.816406 124.933594 135.542969 C 126.355469 135.714844 126.335938 134.453125 126.429688 133.300781 " fill-opacity="1" fill-rule="evenodd"/><path fill="#000000" d="M 50.875 160.714844 C 50.953125 163.492188 53.449219 165.429688 54.863281 167.6875 C 56.390625 170.128906 57.398438 172.757812 58.851562 175.164062 C 54.609375 179.367188 49.242188 182.765625 44.390625 186.378906 C 40.71875 189.113281 35.605469 190.445312 33.417969 194.851562 C 50.492188 196.296875 68.867188 194.304688 85.535156 192.859375 C 89.367188 192.527344 93.261719 191.75 96.757812 190.617188 C 94.203125 185.269531 87.460938 181.96875 83.539062 177.160156 C 91.050781 174.855469 101.867188 173.945312 109.222656 170.679688 C 105.097656 169.121094 103.359375 164.917969 100.496094 160.960938 C 98.65625 158.417969 96.523438 155.613281 94.261719 153.484375 C 92.085938 151.4375 89.433594 150.550781 88.027344 148.253906 C 80.746094 150.476562 73.574219 155.316406 65.585938 157.472656 C 60.796875 158.765625 55.800781 158.84375 50.875 160.714844 M 70.824219 156.972656 C 76.460938 154.726562 81.582031 151.375 87.28125 149.746094 C 95.734375 154.507812 100.34375 163.109375 105.984375 170.679688 C 99.996094 172.675781 92.042969 174.042969 85.535156 175.414062 C 84.132812 175.710938 82.261719 175.753906 81.296875 176.910156 C 85.652344 181.527344 91.847656 184.304688 95.011719 190.117188 C 74.609375 192.925781 58.101562 194.707031 35.914062 193.855469 C 36.980469 192.097656 39.761719 189.898438 42.644531 189.121094 C 48.464844 184.386719 54.8125 180.179688 60.847656 175.664062 C 57.992188 171.039062 55.011719 166.546875 52.371094 161.710938 C 58.378906 159.035156 65.015625 159.289062 70.824219 156.972656 " fill-opacity="1" fill-rule="evenodd"/><path fill="#ffe000" d="M 52.371094 161.710938 C 55.011719 166.546875 57.992188 171.039062 60.847656 175.664062 C 54.8125 180.179688 48.464844 184.386719 42.644531 189.121094 C 39.761719 189.898438 36.980469 192.097656 35.914062 193.855469 C 58.101562 194.707031 74.609375 192.925781 95.011719 190.117188 C 91.847656 184.304688 85.652344 181.527344 81.296875 176.910156 C 82.261719 175.753906 84.132812 175.710938 85.535156 175.414062 C 92.042969 174.042969 99.996094 172.675781 105.984375 170.679688 C 100.34375 163.109375 95.734375 154.507812 87.28125 149.746094 C 81.582031 151.375 76.460938 154.726562 70.824219 156.972656 C 65.015625 159.289062 58.378906 159.035156 52.371094 161.710938 " fill-opacity="1" fill-rule="evenodd"/><path fill="#000000" d="M 117.703125 151.492188 C 116.640625 151.925781 115.371094 152.152344 114.960938 153.238281 C 115.996094 153.800781 118.28125 152.539062 117.703125 151.492188 " fill-opacity="1" fill-rule="evenodd"/><path fill="#000000" d="M 123.191406 155.230469 C 122.699219 155.738281 121.867188 155.902344 121.691406 156.726562 C 122.011719 157.070312 122.773438 156.972656 123.4375 156.972656 C 123.582031 156.164062 123.269531 155.816406 123.191406 155.230469 " fill-opacity="1" fill-rule="evenodd"/><path fill="#000000" d="M 23.445312 198.339844 C 22.480469 198.550781 21.859375 200.121094 22.195312 200.832031 C 22.792969 200.679688 22.605469 199.746094 23.691406 200.085938 C 23.691406 199.421875 23.789062 198.660156 23.445312 198.339844 " fill-opacity="1" fill-rule="evenodd"/><path fill="#000000" d="M 20.449219 198.589844 C 20.34375 199.066406 19.914062 199.214844 19.953125 199.835938 C 20.449219 200.066406 21.140625 200.648438 21.699219 200.085938 C 21.726562 199.144531 21.210938 198.746094 20.449219 198.589844 " fill-opacity="1" fill-rule="evenodd"/><path fill="#000000" d="M 34.414062 212.792969 C 35.191406 213.257812 37.226562 213.21875 37.160156 212.046875 C 37.199219 211.757812 37.105469 211.601562 36.910156 211.546875 C 36.382812 211.398438 34.648438 211.855469 34.414062 212.792969 " fill-opacity="1" fill-rule="evenodd"/><path fill="#000000" d="M 41.148438 214.289062 C 40.328125 214.882812 39.546875 215.515625 38.65625 216.035156 C 39.25 217.964844 41.90625 215.285156 41.148438 214.289062 " fill-opacity="1" fill-rule="evenodd"/><path fill="#000000" d="M 75.558594 224.257812 C 75.191406 224.386719 74.933594 224.625 74.5625 224.757812 C 74.902344 225.578125 74.933594 226.714844 76.058594 226.75 C 76.585938 225.78125 76.191406 224.765625 75.558594 224.257812 " fill-opacity="1" fill-rule="evenodd"/><path fill="#000000" d="M 70.074219 227 C 70.320312 227.917969 70.980469 228.417969 71.570312 228.992188 C 72.847656 228.246094 71.371094 226.746094 70.074219 227 " fill-opacity="1" fill-rule="evenodd"/><g clip-path="url(#b46a728171)"><path fill="#000000" d="M 122.691406 9.199219 C 121.164062 10.335938 119.898438 11.726562 118.699219 13.1875 C 112.726562 11.5625 107.90625 13.308594 105.234375 16.925781 C 105.171875 18.566406 105.265625 20.050781 105.734375 21.160156 C 102.816406 21.902344 100.34375 23.082031 98.253906 24.648438 C 97.234375 28.320312 97.296875 32.503906 99.5 34.367188 C 96.722656 36.933594 93.726562 43.445312 97.503906 47.078125 C 94.199219 50.039062 93.613281 58.03125 99.5 58.542969 C 97.253906 63.847656 101.75 67.800781 107.480469 67.511719 C 105.042969 79.863281 99.277344 91.046875 96.007812 103.398438 C 85.8125 100.425781 68.636719 95.722656 61.847656 105.390625 C 60.386719 107.464844 59.339844 110.855469 59.101562 113.363281 C 58.898438 115.507812 59.84375 118.023438 59.101562 120.839844 C 58.523438 123.039062 56.167969 125.617188 54.613281 128.066406 C 51.488281 132.996094 48.789062 137.167969 45.886719 142.273438 C 44.421875 144.839844 42.367188 146.839844 41.148438 149 C 38.902344 152.984375 37.167969 156.988281 34.914062 160.710938 C 28.359375 171.550781 19.742188 182.015625 12.96875 192.609375 C 4.796875 194.644531 7.304688 205.007812 11.722656 210.550781 C 14.765625 214.363281 20.171875 218.003906 24.941406 221.515625 C 29.449219 224.839844 34.867188 227.851562 40.152344 230.488281 C 52.332031 236.5625 64.957031 239.25 78.054688 240.707031 C 80.125 240.933594 88.089844 237.976562 89.027344 237.214844 C 90.171875 236.285156 90.945312 234.109375 91.769531 233.230469 C 92.007812 232.375 91.457031 230.46875 91.769531 229.242188 C 92.265625 227.289062 96.78125 223.425781 98.75 221.019531 C 105.523438 212.742188 110.78125 202.621094 115.957031 193.355469 C 122.320312 181.96875 128.097656 171.03125 135.15625 160.214844 C 136.128906 158.722656 136.9375 156.796875 137.902344 155.476562 C 139.621094 153.125 142.363281 151.875 143.636719 148.75 C 147.820312 138.46875 138.878906 127.496094 131.917969 123.082031 C 129.355469 121.460938 126.273438 119.820312 123.1875 118.097656 C 118.996094 115.761719 116.019531 113.5625 110.96875 112.617188 C 116.992188 99.195312 123.5625 86.328125 128.425781 71.746094 C 130.292969 73.65625 134.148438 73.496094 136.902344 72.746094 C 137.554688 71.734375 138.253906 70.773438 138.648438 69.503906 C 142.128906 71.125 146.410156 69.8125 148.621094 68.011719 C 149.117188 67.007812 149.046875 65.445312 149.371094 64.273438 C 154.027344 63.136719 159.988281 61.128906 158.347656 55.300781 C 158.585938 53.6875 160.476562 53.96875 161.339844 52.3125 C 163.085938 48.972656 161.59375 42.125 158.597656 41.347656 C 159.976562 35.796875 158.28125 30.195312 153.113281 29.136719 C 152.632812 22.355469 151.078125 15.429688 143.136719 16.925781 C 141.84375 12.761719 137.761719 8.914062 132.167969 10.695312 C 128.882812 9.320312 126.640625 8.550781 122.691406 9.199219 M 132.167969 13.683594 C 135.273438 10.328125 140.511719 13.753906 140.394531 18.667969 C 141.664062 18.714844 141.710938 19.632812 142.636719 19.667969 C 143.613281 19.699219 144.332031 18.445312 145.632812 18.667969 C 149.4375 19.320312 150.207031 28.183594 150.617188 32.125 C 151.273438 32.402344 152.664062 31.601562 153.859375 31.625 C 156.394531 33.5 156.972656 39.167969 155.355469 43.089844 C 156.28125 43.414062 157.433594 43.507812 158.097656 44.089844 C 158.859375 46.238281 159.132812 48.914062 158.597656 51.8125 C 157.910156 52.617188 156.214844 52.421875 155.605469 53.308594 C 154.742188 55.109375 156.113281 56.316406 155.855469 57.792969 C 155.289062 61.027344 150.4375 62.050781 146.628906 61.53125 C 146.289062 63.597656 146.816406 65.152344 145.878906 66.765625 C 143.125 68.496094 139.667969 67.332031 137.152344 66.265625 C 136.011719 67.535156 135.796875 69.726562 134.660156 71 C 133.496094 71.355469 132.257812 71.117188 131.167969 70.75 C 130.21875 69.625 129.820312 67.945312 128.675781 67.011719 C 129.792969 64.058594 132.027344 62.222656 133.410156 59.539062 C 132.792969 59.578125 132.640625 59.148438 132.167969 59.039062 C 130.195312 62.332031 129.117188 65.085938 126.679688 68.011719 C 118.925781 86.59375 111.015625 105.023438 102.492188 122.835938 C 99.539062 121.632812 97.214844 119.800781 95.757812 117.101562 C 96.511719 112.0625 98.886719 106.796875 100.746094 101.152344 C 102.238281 96.628906 103.84375 91.972656 105.234375 87.449219 C 107.398438 80.40625 109.105469 72.59375 111.46875 65.769531 C 112.308594 63.339844 113.304688 60.808594 113.710938 58.542969 C 113.949219 57.21875 114.609375 54.953125 112.714844 54.054688 C 113.261719 57.484375 111.914062 60.570312 110.96875 63.277344 C 108.394531 63.941406 104.875 63.03125 101.742188 62.277344 C 101.394531 59.917969 103.074219 58.601562 102.242188 56.546875 C 100.734375 56.144531 98.800781 56.167969 98.003906 55.050781 C 97.035156 50.769531 100.3125 48.777344 101.492188 45.832031 C 101.128906 44.78125 99.582031 44.917969 99.25 43.839844 C 96.527344 38.855469 102.941406 37.023438 102.742188 33.871094 C 102.609375 31.804688 99.859375 30.988281 100.496094 28.386719 C 101.386719 24.753906 107.277344 25.246094 109.472656 22.15625 C 108.957031 20.488281 107.621094 18.929688 108.226562 17.421875 C 109.832031 13.421875 120.386719 17.976562 122.441406 14.433594 C 121.992188 13.644531 122.933594 12.109375 123.4375 11.441406 C 127.453125 10.117188 129.84375 12.960938 132.167969 13.683594 M 28.183594 177.160156 C 37.628906 161.757812 46.726562 145.910156 56.609375 130.808594 C 58.410156 128.058594 61.535156 123.972656 62.09375 121.339844 C 62.730469 118.355469 61.683594 115.671875 62.09375 112.867188 C 63.96875 100.121094 80.703125 101.148438 90.523438 106.386719 C 83.472656 105.382812 75.511719 104.089844 69.324219 106.886719 C 64.449219 110.726562 67.441406 117.25 70.074219 120.839844 C 71.472656 122.746094 73.921875 124.9375 76.058594 126.574219 C 90.285156 137.449219 113.976562 145.945312 133.164062 148.75 C 134.980469 148.242188 136.992188 147.925781 139.148438 147.753906 C 141.339844 145.890625 141.199219 140.390625 140.144531 137.289062 C 138.804688 133.335938 134.183594 129.5625 130.667969 126.820312 C 124.191406 121.773438 115.378906 118.765625 110.472656 114.609375 C 115.734375 116.007812 121.710938 119.316406 125.933594 122.085938 C 127.519531 123.128906 129.441406 123.800781 130.667969 124.578125 C 132.269531 125.59375 134.429688 127.539062 135.65625 128.816406 C 140.652344 134.011719 144.824219 144.96875 138.648438 151.242188 C 138.402344 151.910156 137.078125 151.5 136.652344 151.988281 C 133.789062 157.761719 130 163.089844 126.679688 168.6875 C 123.359375 174.289062 119.65625 179.886719 116.707031 185.632812 C 112.625 193.570312 108.75 201.265625 103.488281 208.308594 C 98.347656 215.1875 93.292969 222.050781 87.777344 228.496094 C 90.988281 234.851562 81.792969 237.710938 76.808594 237.714844 C 66.855469 237.71875 54.960938 234.921875 45.886719 230.738281 C 40.527344 228.265625 35.773438 223.8125 30.925781 220.769531 C 23.792969 216.292969 18.722656 211.359375 14.464844 205.570312 C 12.605469 203.035156 9.753906 196.667969 13.71875 195.101562 C 15.253906 194.496094 15.207031 195.855469 16.960938 195.597656 C 20.097656 189.320312 24.335938 183.429688 28.183594 177.160156 M 135.65625 132.800781 C 138.523438 135.925781 141.335938 142.617188 138.398438 146.257812 C 130.847656 148.25 122.636719 146.210938 115.460938 143.765625 C 110.121094 141.949219 104.566406 140.273438 99.25 138.035156 C 93.894531 135.78125 89.316406 133.082031 84.785156 130.558594 C 79.9375 127.859375 75.246094 125.011719 72.070312 121.339844 C 70.757812 119.824219 68.820312 117.082031 68.328125 115.855469 C 66.597656 111.542969 69.824219 107.394531 73.566406 106.636719 C 80.078125 105.316406 90.0625 107.816406 95.507812 108.878906 C 95.910156 111.558594 92.570312 115.285156 93.015625 117.351562 C 93.207031 118.234375 95.613281 119.464844 97.253906 120.839844 C 98.957031 122.269531 99.957031 123.210938 101.492188 124.328125 C 104.484375 126.507812 107.863281 130.835938 111.21875 130.0625 C 114.738281 129.25 112.1875 125.355469 111.46875 122.835938 C 109.972656 120.796875 106.304688 118.640625 108.476562 115.855469 C 115.96875 119.414062 129.226562 125.792969 135.65625 132.800781 M 110.472656 127.320312 C 107.957031 129.027344 105.867188 125.773438 104.238281 124.328125 C 105.222656 123.152344 105.738281 121.511719 106.730469 120.34375 C 109.039062 121.605469 110.488281 123.730469 110.472656 127.320312 " fill-opacity="1" fill-rule="evenodd"/></g><g fill="#bbeca5" fill-opacity="1"><g transform="translate(183.327813, 107.903722)"><g><path d="M 5.671875 -5.046875 L 5.671875 -71.8125 C 5.671875 -73.425781 6.375 -74.671875 7.78125 -75.546875 C 9.1875 -76.421875 10.867188 -76.859375 12.828125 -76.859375 L 49.3125 -76.859375 C 50.925781 -76.859375 52.148438 -76.15625 52.984375 -74.75 C 53.828125 -73.351562 54.25 -71.707031 54.25 -69.8125 C 54.25 -67.78125 53.8125 -66.0625 52.9375 -64.65625 C 52.0625 -63.257812 50.851562 -62.5625 49.3125 -62.5625 L 22.078125 -62.5625 L 22.078125 -44.796875 L 37.953125 -44.796875 C 39.492188 -44.796875 40.703125 -44.160156 41.578125 -42.890625 C 42.453125 -41.628906 42.890625 -40.125 42.890625 -38.375 C 42.890625 -36.757812 42.46875 -35.320312 41.625 -34.0625 C 40.789062 -32.800781 39.566406 -32.171875 37.953125 -32.171875 L 22.078125 -32.171875 L 22.078125 -5.046875 C 22.078125 -3.429688 21.269531 -2.1875 19.65625 -1.3125 C 18.050781 -0.4375 16.125 0 13.875 0 C 11.632812 0 9.707031 -0.4375 8.09375 -1.3125 C 6.476562 -2.1875 5.671875 -3.429688 5.671875 -5.046875 Z M 5.671875 -5.046875 "/></g></g></g><g fill="#bbeca5" fill-opacity="1"><g transform="translate(237.471604, 107.903722)"><g><path d="M 6.71875 -61.96875 C 5.039062 -63.476562 4.203125 -65.25 4.203125 -67.28125 C 4.203125 -69.320312 5.039062 -71.078125 6.71875 -72.546875 C 8.40625 -74.015625 10.441406 -74.75 12.828125 -74.75 C 15.140625 -74.75 17.132812 -74.015625 18.8125 -72.546875 C 20.5 -71.078125 21.34375 -69.320312 21.34375 -67.28125 C 21.34375 -65.25 20.5 -63.476562 18.8125 -61.96875 C 17.132812 -60.46875 15.140625 -59.71875 12.828125 -59.71875 C 10.441406 -59.71875 8.40625 -60.46875 6.71875 -61.96875 Z M 4.734375 -5.046875 L 4.734375 -45.109375 C 4.734375 -46.578125 5.484375 -47.765625 6.984375 -48.671875 C 8.492188 -49.585938 10.441406 -50.046875 12.828125 -50.046875 C 15.140625 -50.046875 17.082031 -49.585938 18.65625 -48.671875 C 20.238281 -47.765625 21.03125 -46.578125 21.03125 -45.109375 L 21.03125 -5.046875 C 21.03125 -3.785156 20.222656 -2.628906 18.609375 -1.578125 C 16.992188 -0.523438 15.066406 0 12.828125 0 C 10.515625 0 8.585938 -0.503906 7.046875 -1.515625 C 5.503906 -2.535156 4.734375 -3.710938 4.734375 -5.046875 Z M 4.734375 -5.046875 "/></g></g></g><g fill="#bbeca5" fill-opacity="1"><g transform="translate(263.12419, 107.903722)"><g><path d="M 1.890625 -5.671875 C 1.890625 -7.710938 2.835938 -9.957031 4.734375 -12.40625 L 23.34375 -36.90625 L 7.25 -36.90625 C 5.988281 -36.90625 4.898438 -37.550781 3.984375 -38.84375 C 3.078125 -40.144531 2.625 -41.707031 2.625 -43.53125 C 2.625 -45.351562 3.046875 -46.894531 3.890625 -48.15625 C 4.734375 -49.414062 5.851562 -50.046875 7.25 -50.046875 L 38.6875 -50.046875 C 40.09375 -50.046875 41.285156 -49.585938 42.265625 -48.671875 C 43.242188 -47.765625 43.734375 -46.4375 43.734375 -44.6875 C 43.734375 -42.300781 42.859375 -39.953125 41.109375 -37.640625 L 22.390625 -13.140625 L 41 -13.140625 C 42.257812 -13.140625 43.34375 -12.488281 44.25 -11.1875 C 45.164062 -9.894531 45.625 -8.335938 45.625 -6.515625 C 45.625 -4.691406 45.203125 -3.148438 44.359375 -1.890625 C 43.523438 -0.628906 42.40625 0 41 0 L 7.25 0 C 5.425781 0 4.078125 -0.554688 3.203125 -1.671875 C 2.328125 -2.796875 1.890625 -4.128906 1.890625 -5.671875 Z M 1.890625 -5.671875 "/></g></g></g><g fill="#bbeca5" fill-opacity="1"><g transform="translate(310.224031, 107.903722)"><g><path d="M 1.890625 -5.671875 C 1.890625 -7.710938 2.835938 -9.957031 4.734375 -12.40625 L 23.34375 -36.90625 L 7.25 -36.90625 C 5.988281 -36.90625 4.898438 -37.550781 3.984375 -38.84375 C 3.078125 -40.144531 2.625 -41.707031 2.625 -43.53125 C 2.625 -45.351562 3.046875 -46.894531 3.890625 -48.15625 C 4.734375 -49.414062 5.851562 -50.046875 7.25 -50.046875 L 38.6875 -50.046875 C 40.09375 -50.046875 41.285156 -49.585938 42.265625 -48.671875 C 43.242188 -47.765625 43.734375 -46.4375 43.734375 -44.6875 C 43.734375 -42.300781 42.859375 -39.953125 41.109375 -37.640625 L 22.390625 -13.140625 L 41 -13.140625 C 42.257812 -13.140625 43.34375 -12.488281 44.25 -11.1875 C 45.164062 -9.894531 45.625 -8.335938 45.625 -6.515625 C 45.625 -4.691406 45.203125 -3.148438 44.359375 -1.890625 C 43.523438 -0.628906 42.40625 0 41 0 L 7.25 0 C 5.425781 0 4.078125 -0.554688 3.203125 -1.671875 C 2.328125 -2.796875 1.890625 -4.128906 1.890625 -5.671875 Z M 1.890625 -5.671875 "/></g></g></g><path stroke-linecap="butt" transform="matrix(1.338484, 0, 0, 1.338484, 178.681255, -10.513965)" fill="none" stroke-linejoin="miter" d="M 4.239285 81.22114 L 4.239285 31.342526 C 4.239285 30.140139 4.761681 29.212084 5.809391 28.561277 C 6.86002 27.910471 8.117857 27.583609 9.588738 27.583609 L 36.840888 27.583609 C 38.040356 27.583609 38.956738 28.108923 39.581278 29.156634 C 40.220411 30.204344 40.541436 31.432997 40.541436 32.836754 C 40.541436 34.360166 40.208737 35.644268 39.543339 36.691979 C 38.892533 37.739689 37.990743 38.265004 36.840888 38.265004 L 16.493705 38.265004 L 16.493705 51.535032 L 28.362895 51.535032 C 29.51275 51.535032 30.41454 52.007815 31.068265 52.953382 C 31.719071 53.901866 32.045933 55.025456 32.045933 56.329987 C 32.045933 57.532373 31.730745 58.60635 31.106204 59.551916 C 30.478745 60.497482 29.565281 60.970265 28.362895 60.970265 L 16.493705 60.970265 L 16.493705 81.22114 C 16.493705 82.4352 15.892512 83.369092 14.690125 84.022817 C 13.487739 84.673623 12.048961 85.000486 10.373791 85.000486 C 8.698621 85.000486 7.254006 84.673623 6.039946 84.022817 C 4.840478 83.369092 4.239285 82.4352 4.239285 81.22114 Z M 45.476475 38.688174 C 44.224475 37.561666 43.597016 36.245461 43.597016 34.736641 C 43.597016 33.216148 44.224475 31.90578 45.476475 30.805538 C 46.728474 29.705296 48.248968 29.156634 50.040874 29.156634 C 51.765657 29.156634 53.256966 29.705296 54.508966 30.805538 C 55.760965 31.90578 56.388425 33.216148 56.388425 34.736641 C 56.388425 36.245461 55.760965 37.561666 54.508966 38.688174 C 53.256966 39.811763 51.765657 40.375017 50.040874 40.375017 C 48.248968 40.375017 46.728474 39.811763 45.476475 38.688174 Z M 43.979328 81.22114 L 43.979328 51.304478 C 43.979328 50.207154 44.542582 49.317038 45.66909 48.639966 C 46.792679 47.948302 48.248968 47.603929 50.040874 47.603929 C 51.765657 47.603929 53.216108 47.948302 54.392229 48.639966 C 55.56835 49.317038 56.15787 50.207154 56.15787 51.304478 L 56.15787 81.22114 C 56.15787 82.166706 55.556677 83.036393 54.35429 83.830202 C 53.151903 84.609418 51.716044 85.000486 50.040874 85.000486 C 48.313173 85.000486 46.868558 84.62401 45.707029 83.868141 C 44.554256 83.100598 43.979328 82.219237 43.979328 81.22114 Z M 61.037458 80.762949 C 61.037458 79.239537 61.737877 77.564367 63.144553 75.73744 L 77.047877 57.424392 L 65.04444 57.424392 C 64.098874 57.424392 63.2788 56.942854 62.590054 55.985614 C 61.912982 55.013782 61.574446 53.849335 61.574446 52.495191 C 61.574446 51.126454 61.886716 49.970762 62.514175 49.022278 C 63.153308 48.076712 63.99673 47.603929 65.04444 47.603929 L 88.517244 47.603929 C 89.564955 47.603929 90.455071 47.948302 91.181756 48.639966 C 91.923033 49.317038 92.293672 50.309299 92.293672 51.61383 C 92.293672 53.388225 91.642866 55.148029 90.338335 56.887404 L 76.338703 75.180023 L 90.242027 75.180023 C 91.190511 75.180023 92.001831 75.667398 92.678903 76.63923 C 93.367648 77.611062 93.71494 78.781346 93.71494 80.147163 C 93.71494 81.504226 93.393914 82.654081 92.754781 83.599647 C 92.130241 84.53354 91.292656 85.000486 90.242027 85.000486 L 65.04444 85.000486 C 63.675704 85.000486 62.665933 84.583153 62.015127 83.754323 C 61.361402 82.910901 61.037458 81.912804 61.037458 80.762949 Z M 96.224776 80.762949 C 96.224776 79.239537 96.928113 77.564367 98.334789 75.73744 L 112.238113 57.424392 L 100.231758 57.424392 C 99.286192 57.424392 98.469036 56.942854 97.777372 55.985614 C 97.1003 55.013782 96.761764 53.849335 96.761764 52.495191 C 96.761764 51.126454 97.074034 49.970762 97.701493 49.022278 C 98.340626 48.076712 99.184047 47.603929 100.231758 47.603929 L 123.70748 47.603929 C 124.755191 47.603929 125.642389 47.948302 126.371992 48.639966 C 127.113269 49.317038 127.483908 50.309299 127.483908 51.61383 C 127.483908 53.388225 126.833102 55.148029 125.528571 56.887404 L 111.528939 75.180023 L 125.432263 75.180023 C 126.377829 75.180023 127.189148 75.667398 127.86622 76.63923 C 128.557884 77.611062 128.902257 78.781346 128.902257 80.147163 C 128.902257 81.504226 128.58415 82.654081 127.945017 83.599647 C 127.317558 84.53354 126.479974 85.000486 125.432263 85.000486 L 100.231758 85.000486 C 98.86594 85.000486 97.856169 84.583153 97.202444 83.754323 C 96.551638 82.910901 96.224776 81.912804 96.224776 80.762949 Z M 96.224776 80.762949 " stroke="#7ed957" stroke-width="2.945674" stroke-opacity="1" stroke-miterlimit="4"/><g fill="#60c089" fill-opacity="1"><g transform="translate(185.388525, 242.705394)"><g><path d="M 8.203125 -7.140625 L 8.203125 -103.65625 C 8.203125 -105.976562 9.210938 -107.769531 11.234375 -109.03125 C 13.253906 -110.300781 15.679688 -110.9375 18.515625 -110.9375 L 49.625 -110.9375 C 69.863281 -110.9375 79.984375 -101.929688 79.984375 -83.921875 C 79.984375 -71.785156 75.679688 -63.84375 67.078125 -60.09375 C 72.242188 -58.175781 76.140625 -55.421875 78.765625 -51.828125 C 81.398438 -48.234375 82.71875 -42.894531 82.71875 -35.8125 L 82.71875 -32.625 C 82.71875 -21.289062 79.957031 -13.019531 74.4375 -7.8125 C 68.925781 -2.601562 61.515625 0 52.203125 0 L 18.515625 0 C 15.378906 0 12.875 -0.707031 11 -2.125 C 9.132812 -3.539062 8.203125 -5.210938 8.203125 -7.140625 Z M 31.71875 -20.640625 L 46.890625 -20.640625 C 54.984375 -20.640625 59.03125 -25.296875 59.03125 -34.609375 L 59.03125 -37.03125 C 59.03125 -46.34375 54.984375 -51 46.890625 -51 L 31.71875 -51 Z M 31.71875 -69.203125 L 47.65625 -69.203125 C 50.382812 -69.203125 52.507812 -70.238281 54.03125 -72.3125 C 55.550781 -74.382812 56.3125 -76.835938 56.3125 -79.671875 C 56.3125 -82.503906 55.550781 -84.984375 54.03125 -87.109375 C 52.507812 -89.234375 50.382812 -90.296875 47.65625 -90.296875 L 31.71875 -90.296875 Z M 31.71875 -69.203125 "/></g></g></g><g fill="#60c089" fill-opacity="1"><g transform="translate(272.194972, 242.705394)"><g><path d="M 6.078125 -30.359375 L 6.078125 -64.953125 C 6.078125 -66.773438 7.238281 -68.441406 9.5625 -69.953125 C 11.882812 -71.472656 14.664062 -72.234375 17.90625 -72.234375 C 20.945312 -72.234375 23.65625 -71.472656 26.03125 -69.953125 C 28.40625 -68.441406 29.59375 -66.773438 29.59375 -64.953125 L 29.59375 -30.359375 C 29.59375 -27.421875 30.703125 -24.785156 32.921875 -22.453125 C 35.148438 -20.128906 37.734375 -18.96875 40.671875 -18.96875 C 43.609375 -18.96875 46.160156 -20.128906 48.328125 -22.453125 C 50.503906 -24.785156 51.59375 -27.421875 51.59375 -30.359375 L 51.59375 -65.109375 C 51.59375 -67.023438 52.78125 -68.691406 55.15625 -70.109375 C 57.539062 -71.523438 60.300781 -72.234375 63.4375 -72.234375 C 66.78125 -72.234375 69.5625 -71.523438 71.78125 -70.109375 C 74.007812 -68.691406 75.125 -67.023438 75.125 -65.109375 L 75.125 -30.359375 C 75.125 -21.859375 71.707031 -14.421875 64.875 -8.046875 C 58.050781 -1.671875 49.984375 1.515625 40.671875 1.515625 C 31.265625 1.515625 23.144531 -1.671875 16.3125 -8.046875 C 9.488281 -14.421875 6.078125 -21.859375 6.078125 -30.359375 Z M 6.078125 -30.359375 "/></g></g></g><g fill="#60c089" fill-opacity="1"><g transform="translate(353.386338, 242.705394)"><g><path d="M 2.734375 -8.203125 C 2.734375 -11.128906 4.097656 -14.363281 6.828125 -17.90625 L 33.6875 -53.265625 L 10.46875 -53.265625 C 8.644531 -53.265625 7.078125 -54.203125 5.765625 -56.078125 C 4.453125 -57.953125 3.796875 -60.203125 3.796875 -62.828125 C 3.796875 -65.460938 4.398438 -67.6875 5.609375 -69.5 C 6.828125 -71.320312 8.445312 -72.234375 10.46875 -72.234375 L 55.84375 -72.234375 C 57.875 -72.234375 59.597656 -71.578125 61.015625 -70.265625 C 62.429688 -68.953125 63.140625 -67.03125 63.140625 -64.5 C 63.140625 -61.0625 61.875 -57.671875 59.34375 -54.328125 L 32.328125 -18.96875 L 59.1875 -18.96875 C 61.007812 -18.96875 62.578125 -18.03125 63.890625 -16.15625 C 65.203125 -14.289062 65.859375 -12.039062 65.859375 -9.40625 C 65.859375 -6.78125 65.25 -4.554688 64.03125 -2.734375 C 62.820312 -0.910156 61.207031 0 59.1875 0 L 10.46875 0 C 7.84375 0 5.894531 -0.804688 4.625 -2.421875 C 3.363281 -4.046875 2.734375 -5.972656 2.734375 -8.203125 Z M 2.734375 -8.203125 "/></g></g></g><g fill="#60c089" fill-opacity="1"><g transform="translate(421.374616, 242.705394)"><g><path d="M 2.734375 -8.203125 C 2.734375 -11.128906 4.097656 -14.363281 6.828125 -17.90625 L 33.6875 -53.265625 L 10.46875 -53.265625 C 8.644531 -53.265625 7.078125 -54.203125 5.765625 -56.078125 C 4.453125 -57.953125 3.796875 -60.203125 3.796875 -62.828125 C 3.796875 -65.460938 4.398438 -67.6875 5.609375 -69.5 C 6.828125 -71.320312 8.445312 -72.234375 10.46875 -72.234375 L 55.84375 -72.234375 C 57.875 -72.234375 59.597656 -71.578125 61.015625 -70.265625 C 62.429688 -68.953125 63.140625 -67.03125 63.140625 -64.5 C 63.140625 -61.0625 61.875 -57.671875 59.34375 -54.328125 L 32.328125 -18.96875 L 59.1875 -18.96875 C 61.007812 -18.96875 62.578125 -18.03125 63.890625 -16.15625 C 65.203125 -14.289062 65.859375 -12.039062 65.859375 -9.40625 C 65.859375 -6.78125 65.25 -4.554688 64.03125 -2.734375 C 62.820312 -0.910156 61.207031 0 59.1875 0 L 10.46875 0 C 7.84375 0 5.894531 -0.804688 4.625 -2.421875 C 3.363281 -4.046875 2.734375 -5.972656 2.734375 -8.203125 Z M 2.734375 -8.203125 "/></g></g></g><g fill="#60c089" fill-opacity="1"><g transform="translate(489.362894, 242.705394)"><g><path d="M 5.921875 -10.78125 C 5.921875 -14.007812 7.03125 -16.765625 9.25 -19.046875 C 11.476562 -21.328125 14.265625 -22.46875 17.609375 -22.46875 C 20.742188 -22.46875 23.445312 -21.300781 25.71875 -18.96875 C 28 -16.644531 29.140625 -13.914062 29.140625 -10.78125 C 29.140625 -7.644531 28 -4.910156 25.71875 -2.578125 C 23.445312 -0.253906 20.742188 0.90625 17.609375 0.90625 C 14.367188 0.90625 11.609375 -0.253906 9.328125 -2.578125 C 7.054688 -4.910156 5.921875 -7.644531 5.921875 -10.78125 Z M 6.375 -101.6875 C 6.375 -104.519531 7.410156 -106.769531 9.484375 -108.4375 C 11.554688 -110.101562 14.210938 -110.9375 17.453125 -110.9375 C 20.585938 -110.9375 23.191406 -110.101562 25.265625 -108.4375 C 27.335938 -106.769531 28.375 -104.519531 28.375 -101.6875 C 28.375 -95.613281 28.019531 -85.238281 27.3125 -70.5625 C 26.601562 -55.894531 26.25 -45.578125 26.25 -39.609375 C 26.25 -37.484375 25.3125 -35.835938 23.4375 -34.671875 C 21.570312 -33.515625 19.578125 -32.9375 17.453125 -32.9375 C 11.484375 -32.9375 8.5 -35.160156 8.5 -39.609375 C 8.5 -45.578125 8.144531 -55.894531 7.4375 -70.5625 C 6.726562 -85.238281 6.375 -95.613281 6.375 -101.6875 Z M 6.375 -101.6875 "/></g></g></g><path stroke-linecap="butt" transform="matrix(1.932092, 0, 0, 1.932092, 178.681255, 71.770322)" fill="none" stroke-linejoin="miter" d="M 4.238846 81.299109 L 4.238846 31.341109 C 4.238846 30.140176 4.762485 29.214204 5.809763 28.561172 C 6.859063 27.910161 8.118628 27.582634 9.588456 27.582634 L 25.677722 27.582634 C 36.162635 27.582634 41.403069 32.24282 41.403069 41.563191 C 41.403069 47.840795 39.173054 51.951059 34.711002 53.893982 C 37.383786 54.890716 39.395449 56.324153 40.752059 58.190249 C 42.118777 60.044214 42.804158 62.79989 42.804158 66.455255 L 42.804158 68.105021 C 42.804158 73.972205 41.378808 78.256342 38.526087 80.953386 C 35.675388 83.650431 31.840085 85.000975 27.020179 85.000975 L 9.588456 85.000975 C 7.964973 85.000975 6.666995 84.635034 5.696544 83.907196 C 4.724071 83.165205 4.238846 82.295843 4.238846 81.299109 Z M 16.415982 74.317929 L 24.278656 74.317929 C 28.459681 74.317929 30.550194 71.907976 30.550194 67.08807 L 30.550194 65.842658 C 30.550194 61.022752 28.459681 58.612799 24.278656 58.612799 L 16.415982 58.612799 Z M 16.415982 49.177187 L 24.662793 49.177187 C 26.080055 49.177187 27.179899 48.639395 27.960304 47.565834 C 28.752838 46.492273 29.149106 45.226643 29.149106 43.768945 C 29.149106 42.299116 28.752838 41.013269 27.960304 39.913425 C 27.179899 38.815602 26.080055 38.26568 24.662793 38.26568 L 16.415982 38.26568 Z M 48.072897 69.293824 L 48.072897 51.38294 C 48.072897 50.436751 48.675385 49.573454 49.876318 48.79305 C 51.077251 48.000515 52.516753 47.604248 54.190781 47.604248 C 55.76372 47.604248 57.164808 48.000515 58.392024 48.79305 C 59.631371 49.573454 60.252055 50.436751 60.252055 51.38294 L 60.252055 69.293824 C 60.252055 70.816218 60.826239 72.176871 61.976627 73.377804 C 63.127016 74.580759 64.463407 75.181225 65.985802 75.181225 C 67.506175 75.181225 68.830436 74.580759 69.954542 73.377804 C 71.080669 72.176871 71.642722 70.816218 71.642722 69.293824 L 71.642722 51.306113 C 71.642722 50.307357 72.255319 49.446082 73.484557 48.716222 C 74.711773 47.974232 76.137122 47.604248 77.760606 47.604248 C 79.485178 47.604248 80.92468 47.974232 82.075068 48.716222 C 83.237588 49.446082 83.819858 50.307357 83.819858 51.306113 L 83.819858 69.293824 C 83.819858 73.691179 82.048785 77.540634 78.508661 80.838145 C 74.978647 84.137678 70.805708 85.785423 65.985802 85.785423 C 61.11333 85.785423 56.908043 84.137678 53.365898 80.838145 C 49.837905 77.540634 48.072897 73.691179 48.072897 69.293824 Z M 88.370868 80.761318 C 88.370868 79.240945 89.074445 77.564895 90.479577 75.737213 L 104.383307 57.423997 L 92.378021 57.423997 C 91.431832 57.423997 90.615036 56.942815 89.923589 55.984495 C 89.246296 55.014044 88.906638 53.849503 88.906638 52.494915 C 88.906638 51.126175 89.220013 49.969721 89.846762 49.023532 C 90.485642 48.077342 91.330743 47.604248 92.378021 47.604248 L 115.850801 47.604248 C 116.900101 47.604248 117.787659 47.949971 118.517519 48.639395 C 119.259509 49.316689 119.629494 50.307357 119.629494 51.611401 C 119.629494 53.388539 118.976461 55.147481 117.672418 56.886205 L 103.673665 75.181225 L 117.577395 75.181225 C 118.523584 75.181225 119.334315 75.666451 120.013631 76.638923 C 120.703055 77.609374 121.048778 78.779981 121.048778 80.148721 C 121.048778 81.503308 120.729338 82.653697 120.090458 83.599886 C 119.463709 84.533945 118.624673 85.000975 117.577395 85.000975 L 92.378021 85.000975 C 91.011303 85.000975 90.000417 84.58449 89.349406 83.753541 C 88.696373 82.910462 88.370868 81.911706 88.370868 80.761318 Z M 123.55982 80.761318 C 123.55982 79.240945 124.263397 77.564895 125.668529 75.737213 L 139.572259 57.423997 L 127.566973 57.423997 C 126.620783 57.423997 125.803987 56.942815 125.112541 55.984495 C 124.435247 55.014044 124.095589 53.849503 124.095589 52.494915 C 124.095589 51.126175 124.408964 49.969721 125.035714 49.023532 C 125.674594 48.077342 126.519695 47.604248 127.566973 47.604248 L 151.039753 47.604248 C 152.089053 47.604248 152.976611 47.949971 153.706471 48.639395 C 154.448461 49.316689 154.818446 50.307357 154.818446 51.611401 C 154.818446 53.388539 154.165413 55.147481 152.86137 56.886205 L 138.862616 75.181225 L 152.766346 75.181225 C 153.712536 75.181225 154.523267 75.666451 155.202582 76.638923 C 155.892007 77.609374 156.23773 78.779981 156.23773 80.148721 C 156.23773 81.503308 155.91829 82.653697 155.27941 83.599886 C 154.65266 84.533945 153.815646 85.000975 152.766346 85.000975 L 127.566973 85.000975 C 126.200255 85.000975 125.189368 84.58449 124.538358 83.753541 C 123.885325 82.910462 123.55982 81.911706 123.55982 80.761318 Z M 160.396516 79.418861 C 160.396516 77.744833 160.972721 76.319483 162.12311 75.142812 C 163.273498 73.96614 164.713 73.377804 166.437572 73.377804 C 168.061056 73.377804 169.462144 73.980293 170.638816 75.181225 C 171.813466 76.382158 172.401802 77.795377 172.401802 79.418861 C 172.401802 81.042344 171.813466 82.461628 170.638816 83.676714 C 169.462144 84.877647 168.061056 85.480135 166.437572 85.480135 C 164.763545 85.480135 163.338195 84.877647 162.161523 83.676714 C 160.984852 82.461628 160.396516 81.042344 160.396516 79.418861 Z M 160.626998 32.378278 C 160.626998 30.906428 161.16479 29.743909 162.238351 28.886677 C 163.311912 28.017315 164.686717 27.582634 166.360745 27.582634 C 167.98625 27.582634 169.334773 28.017315 170.408334 28.886677 C 171.481895 29.743909 172.019687 30.906428 172.019687 32.378278 C 172.019687 35.510004 171.833683 40.873767 171.463699 48.467544 C 171.103824 56.061322 170.925908 61.404867 170.925908 64.500201 C 170.925908 65.598023 170.440682 66.44919 169.46821 67.049656 C 168.495737 67.650123 167.460589 67.951367 166.360745 67.951367 C 163.267433 67.951367 161.720777 66.800978 161.720777 64.500201 C 161.720777 61.404867 161.534774 56.061322 161.16479 48.467544 C 160.806936 40.873767 160.626998 35.510004 160.626998 32.378278 Z M 160.626998 32.378278 " stroke="#008037" stroke-width="2.945674" stroke-opacity="1" stroke-miterlimit="4"/><g fill="#008037" fill-opacity="1"><g transform="translate(141.492332, 304.088576)"><g><path d="M 0.125 -2 C 0.125 -2.0625 0.144531 -2.175781 0.1875 -2.34375 L 5.984375 -21.375 C 6.148438 -21.894531 6.53125 -22.296875 7.125 -22.578125 C 7.71875 -22.859375 8.398438 -23 9.171875 -23 C 9.941406 -23 10.625 -22.859375 11.21875 -22.578125 C 11.8125 -22.296875 12.191406 -21.894531 12.359375 -21.375 L 18.1875 -2.34375 C 18.226562 -2.175781 18.25 -2.0625 18.25 -2 C 18.25 -1.457031 17.910156 -0.988281 17.234375 -0.59375 C 16.554688 -0.195312 15.859375 0 15.140625 0 C 14.242188 0 13.710938 -0.300781 13.546875 -0.90625 L 12.484375 -4.8125 L 5.890625 -4.8125 L 4.84375 -0.90625 C 4.675781 -0.300781 4.144531 0 3.25 0 C 2.519531 0 1.816406 -0.195312 1.140625 -0.59375 C 0.460938 -0.988281 0.125 -1.457031 0.125 -2 Z M 6.890625 -8.546875 L 11.453125 -8.546875 L 9.171875 -16.90625 Z M 6.890625 -8.546875 "/></g></g></g><g fill="#008037" fill-opacity="1"><g transform="translate(159.870643, 304.088576)"><g/></g></g><g fill="#008037" fill-opacity="1"><g transform="translate(166.111161, 304.088576)"><g><path d="M 1.4375 -7.171875 L 1.4375 -15.453125 C 1.4375 -17.984375 2.125 -19.84375 3.5 -21.03125 C 4.882812 -22.21875 6.691406 -22.8125 8.921875 -22.8125 C 11.210938 -22.8125 13.085938 -22.257812 14.546875 -21.15625 C 16.015625 -20.050781 16.75 -18.53125 16.75 -16.59375 C 16.75 -15.707031 16.5625 -15.101562 16.1875 -14.78125 C 15.8125 -14.457031 15.191406 -14.296875 14.328125 -14.296875 C 12.765625 -14.296875 11.953125 -14.78125 11.890625 -15.75 C 11.828125 -17.625 10.898438 -18.5625 9.109375 -18.5625 C 7.234375 -18.5625 6.296875 -17.523438 6.296875 -15.453125 L 6.296875 -7.171875 C 6.296875 -5.097656 7.242188 -4.0625 9.140625 -4.0625 C 9.722656 -4.0625 10.207031 -4.15625 10.59375 -4.34375 C 10.976562 -4.53125 11.253906 -4.8125 11.421875 -5.1875 C 11.585938 -5.570312 11.695312 -5.890625 11.75 -6.140625 C 11.800781 -6.390625 11.847656 -6.734375 11.890625 -7.171875 C 11.972656 -8.148438 12.773438 -8.640625 14.296875 -8.640625 C 15.179688 -8.640625 15.8125 -8.476562 16.1875 -8.15625 C 16.5625 -7.832031 16.75 -7.222656 16.75 -6.328125 C 16.75 -4.316406 16.015625 -2.726562 14.546875 -1.5625 C 13.085938 -0.394531 11.210938 0.1875 8.921875 0.1875 C 6.691406 0.1875 4.882812 -0.40625 3.5 -1.59375 C 2.125 -2.78125 1.4375 -4.640625 1.4375 -7.171875 Z M 1.4375 -7.171875 "/></g></g></g><g fill="#008037" fill-opacity="1"><g transform="translate(183.647006, 304.088576)"><g><path d="M 0.84375 -6.296875 L 0.84375 -8.484375 C 0.84375 -10.253906 1.539062 -11.789062 2.9375 -13.09375 C 4.332031 -14.394531 5.992188 -15.046875 7.921875 -15.046875 C 9.835938 -15.046875 11.503906 -14.398438 12.921875 -13.109375 C 14.335938 -11.816406 15.046875 -10.273438 15.046875 -8.484375 L 15.046875 -6.296875 C 15.046875 -4.554688 14.332031 -3.019531 12.90625 -1.6875 C 11.476562 -0.351562 9.816406 0.3125 7.921875 0.3125 C 6.035156 0.3125 4.382812 -0.351562 2.96875 -1.6875 C 1.550781 -3.019531 0.84375 -4.554688 0.84375 -6.296875 Z M 5.671875 -6.296875 C 5.671875 -5.671875 5.890625 -5.113281 6.328125 -4.625 C 6.765625 -4.144531 7.296875 -3.90625 7.921875 -3.90625 C 8.546875 -3.90625 9.082031 -4.144531 9.53125 -4.625 C 9.976562 -5.113281 10.203125 -5.671875 10.203125 -6.296875 L 10.203125 -8.484375 C 10.203125 -9.085938 9.972656 -9.628906 9.515625 -10.109375 C 9.054688 -10.585938 8.523438 -10.828125 7.921875 -10.828125 C 7.316406 -10.828125 6.789062 -10.585938 6.34375 -10.109375 C 5.894531 -9.628906 5.671875 -9.085938 5.671875 -8.484375 Z M 5.671875 -6.296875 "/></g></g></g><g fill="#008037" fill-opacity="1"><g transform="translate(199.529117, 304.088576)"><g><path d="M 0.875 -6.296875 L 0.875 -8.484375 C 0.875 -10.273438 1.414062 -11.816406 2.5 -13.109375 C 3.582031 -14.398438 4.878906 -15.046875 6.390625 -15.046875 C 7.285156 -15.046875 8.082031 -14.816406 8.78125 -14.359375 C 9.476562 -13.898438 10.003906 -13.335938 10.359375 -12.671875 L 10.359375 -21.875 C 10.359375 -22.3125 10.59375 -22.664062 11.0625 -22.9375 C 11.53125 -23.207031 12.117188 -23.34375 12.828125 -23.34375 C 13.515625 -23.34375 14.082031 -23.207031 14.53125 -22.9375 C 14.976562 -22.664062 15.203125 -22.3125 15.203125 -21.875 L 15.203125 -1.5 C 15.203125 -1.101562 14.972656 -0.753906 14.515625 -0.453125 C 14.054688 -0.148438 13.492188 0 12.828125 0 C 12.242188 0 11.738281 -0.15625 11.3125 -0.46875 C 10.882812 -0.78125 10.671875 -1.125 10.671875 -1.5 L 10.671875 -2.1875 C 10.335938 -1.5 9.765625 -0.910156 8.953125 -0.421875 C 8.140625 0.0664062 7.253906 0.3125 6.296875 0.3125 C 4.867188 0.3125 3.609375 -0.351562 2.515625 -1.6875 C 1.421875 -3.019531 0.875 -4.554688 0.875 -6.296875 Z M 5.703125 -6.296875 C 5.703125 -5.671875 5.925781 -5.113281 6.375 -4.625 C 6.820312 -4.144531 7.347656 -3.90625 7.953125 -3.90625 C 8.554688 -3.90625 9.109375 -4.148438 9.609375 -4.640625 C 10.109375 -5.140625 10.359375 -5.554688 10.359375 -5.890625 L 10.359375 -8.484375 C 10.359375 -9.171875 10.113281 -9.734375 9.625 -10.171875 C 9.132812 -10.609375 8.585938 -10.828125 7.984375 -10.828125 C 7.359375 -10.828125 6.820312 -10.585938 6.375 -10.109375 C 5.925781 -9.628906 5.703125 -9.085938 5.703125 -8.484375 Z M 5.703125 -6.296875 "/></g></g></g><g fill="#008037" fill-opacity="1"><g transform="translate(216.160087, 304.088576)"><g><path d="M 2 -18.390625 C 1.5 -18.835938 1.25 -19.363281 1.25 -19.96875 C 1.25 -20.570312 1.5 -21.09375 2 -21.53125 C 2.5 -21.96875 3.101562 -22.1875 3.8125 -22.1875 C 4.5 -22.1875 5.085938 -21.96875 5.578125 -21.53125 C 6.078125 -21.09375 6.328125 -20.570312 6.328125 -19.96875 C 6.328125 -19.363281 6.078125 -18.835938 5.578125 -18.390625 C 5.085938 -17.941406 4.5 -17.71875 3.8125 -17.71875 C 3.101562 -17.71875 2.5 -17.941406 2 -18.390625 Z M 1.40625 -1.5 L 1.40625 -13.390625 C 1.40625 -13.828125 1.628906 -14.179688 2.078125 -14.453125 C 2.523438 -14.722656 3.101562 -14.859375 3.8125 -14.859375 C 4.5 -14.859375 5.070312 -14.722656 5.53125 -14.453125 C 6 -14.179688 6.234375 -13.828125 6.234375 -13.390625 L 6.234375 -1.5 C 6.234375 -1.125 5.992188 -0.78125 5.515625 -0.46875 C 5.046875 -0.15625 4.476562 0 3.8125 0 C 3.125 0 2.550781 -0.148438 2.09375 -0.453125 C 1.632812 -0.753906 1.40625 -1.101562 1.40625 -1.5 Z M 1.40625 -1.5 "/></g></g></g><g fill="#008037" fill-opacity="1"><g transform="translate(223.773517, 304.088576)"><g><path d="M 1.40625 -1.5 L 1.40625 -13.390625 C 1.40625 -13.828125 1.628906 -14.179688 2.078125 -14.453125 C 2.523438 -14.722656 3.101562 -14.859375 3.8125 -14.859375 C 4.394531 -14.859375 4.890625 -14.722656 5.296875 -14.453125 C 5.710938 -14.179688 5.921875 -13.828125 5.921875 -13.390625 L 5.921875 -12.671875 C 6.253906 -13.335938 6.789062 -13.898438 7.53125 -14.359375 C 8.269531 -14.816406 9.128906 -15.046875 10.109375 -15.046875 C 11.546875 -15.046875 12.789062 -14.398438 13.84375 -13.109375 C 14.894531 -11.816406 15.421875 -10.273438 15.421875 -8.484375 L 15.421875 -1.5 C 15.421875 -1.019531 15.179688 -0.648438 14.703125 -0.390625 C 14.222656 -0.128906 13.648438 0 12.984375 0 C 12.359375 0 11.800781 -0.132812 11.3125 -0.40625 C 10.820312 -0.675781 10.578125 -1.039062 10.578125 -1.5 L 10.578125 -8.484375 C 10.578125 -9.085938 10.351562 -9.628906 9.90625 -10.109375 C 9.457031 -10.585938 8.929688 -10.828125 8.328125 -10.828125 C 7.785156 -10.828125 7.300781 -10.613281 6.875 -10.1875 C 6.445312 -9.757812 6.234375 -9.191406 6.234375 -8.484375 L 6.234375 -1.5 C 6.234375 -1.125 5.988281 -0.78125 5.5 -0.46875 C 5.019531 -0.15625 4.457031 0 3.8125 0 C 3.125 0 2.550781 -0.148438 2.09375 -0.453125 C 1.632812 -0.753906 1.40625 -1.101562 1.40625 -1.5 Z M 1.40625 -1.5 "/></g></g></g><g fill="#008037" fill-opacity="1"><g transform="translate(240.435698, 304.088576)"><g><path d="M 0.375 2.25 C 0.375 0.875 1.070312 -0.207031 2.46875 -1 C 1.71875 -1.4375 1.34375 -2.082031 1.34375 -2.9375 C 1.34375 -3.851562 1.875 -4.691406 2.9375 -5.453125 C 1.582031 -6.453125 0.90625 -7.773438 0.90625 -9.421875 L 0.90625 -9.890625 C 0.90625 -11.410156 1.492188 -12.648438 2.671875 -13.609375 C 3.847656 -14.566406 5.390625 -15.046875 7.296875 -15.046875 C 8.609375 -15.046875 9.785156 -14.796875 10.828125 -14.296875 C 11.179688 -15.148438 11.492188 -15.722656 11.765625 -16.015625 C 12.035156 -16.316406 12.316406 -16.46875 12.609375 -16.46875 C 13.148438 -16.46875 13.59375 -16.304688 13.9375 -15.984375 C 14.28125 -15.671875 14.453125 -15.359375 14.453125 -15.046875 C 14.453125 -14.710938 14.285156 -14.398438 13.953125 -14.109375 L 13.328125 -13.609375 C 13.015625 -13.359375 12.773438 -13.148438 12.609375 -12.984375 C 13.398438 -12.128906 13.796875 -11.097656 13.796875 -9.890625 L 13.796875 -9.421875 C 13.796875 -7.921875 13.1875 -6.675781 11.96875 -5.6875 C 10.75 -4.707031 9.191406 -4.21875 7.296875 -4.21875 C 6.609375 -4.21875 5.984375 -4.28125 5.421875 -4.40625 C 5.335938 -4.257812 5.296875 -4.125 5.296875 -4 C 5.296875 -3.707031 5.613281 -3.488281 6.25 -3.34375 C 6.882812 -3.195312 7.65625 -3.0625 8.5625 -2.9375 C 9.46875 -2.8125 10.375 -2.628906 11.28125 -2.390625 C 12.1875 -2.148438 12.957031 -1.6875 13.59375 -1 C 14.226562 -0.3125 14.546875 0.582031 14.546875 1.6875 C 14.546875 3.394531 13.859375 4.664062 12.484375 5.5 C 11.109375 6.34375 9.441406 6.765625 7.484375 6.765625 C 5.535156 6.765625 3.863281 6.359375 2.46875 5.546875 C 1.070312 4.742188 0.375 3.644531 0.375 2.25 Z M 4.9375 1.75 C 4.9375 2.351562 5.175781 2.832031 5.65625 3.1875 C 6.144531 3.539062 6.722656 3.71875 7.390625 3.71875 C 8.054688 3.71875 8.632812 3.539062 9.125 3.1875 C 9.613281 2.832031 9.859375 2.375 9.859375 1.8125 C 9.859375 1.457031 9.765625 1.164062 9.578125 0.9375 C 9.390625 0.707031 9.101562 0.523438 8.71875 0.390625 C 8.332031 0.253906 7.957031 0.148438 7.59375 0.078125 C 7.226562 0.00390625 6.753906 -0.0625 6.171875 -0.125 C 5.347656 0.3125 4.9375 0.9375 4.9375 1.75 Z M 5.578125 -9.453125 C 5.578125 -8.742188 5.734375 -8.160156 6.046875 -7.703125 C 6.359375 -7.242188 6.796875 -7.015625 7.359375 -7.015625 C 7.898438 -7.015625 8.328125 -7.238281 8.640625 -7.6875 C 8.953125 -8.132812 9.109375 -8.710938 9.109375 -9.421875 L 9.109375 -9.890625 C 9.109375 -10.554688 8.953125 -11.113281 8.640625 -11.5625 C 8.328125 -12.007812 7.890625 -12.234375 7.328125 -12.234375 C 6.785156 -12.234375 6.359375 -12.007812 6.046875 -11.5625 C 5.734375 -11.113281 5.578125 -10.554688 5.578125 -9.890625 Z M 5.578125 -9.453125 "/></g></g></g><g fill="#008037" fill-opacity="1"><g transform="translate(255.350526, 304.088576)"><g/></g></g><g fill="#008037" fill-opacity="1"><g transform="translate(261.591044, 304.088576)"><g><path d="M 1.4375 -7.171875 L 1.4375 -15.453125 C 1.4375 -17.984375 2.125 -19.84375 3.5 -21.03125 C 4.882812 -22.21875 6.691406 -22.8125 8.921875 -22.8125 C 11.210938 -22.8125 13.085938 -22.257812 14.546875 -21.15625 C 16.015625 -20.050781 16.75 -18.53125 16.75 -16.59375 C 16.75 -15.707031 16.5625 -15.101562 16.1875 -14.78125 C 15.8125 -14.457031 15.191406 -14.296875 14.328125 -14.296875 C 12.765625 -14.296875 11.953125 -14.78125 11.890625 -15.75 C 11.828125 -17.625 10.898438 -18.5625 9.109375 -18.5625 C 7.234375 -18.5625 6.296875 -17.523438 6.296875 -15.453125 L 6.296875 -7.171875 C 6.296875 -5.097656 7.242188 -4.0625 9.140625 -4.0625 C 9.722656 -4.0625 10.207031 -4.15625 10.59375 -4.34375 C 10.976562 -4.53125 11.253906 -4.8125 11.421875 -5.1875 C 11.585938 -5.570312 11.695312 -5.890625 11.75 -6.140625 C 11.800781 -6.390625 11.847656 -6.734375 11.890625 -7.171875 C 11.972656 -8.148438 12.773438 -8.640625 14.296875 -8.640625 C 15.179688 -8.640625 15.8125 -8.476562 16.1875 -8.15625 C 16.5625 -7.832031 16.75 -7.222656 16.75 -6.328125 C 16.75 -4.316406 16.015625 -2.726562 14.546875 -1.5625 C 13.085938 -0.394531 11.210938 0.1875 8.921875 0.1875 C 6.691406 0.1875 4.882812 -0.40625 3.5 -1.59375 C 2.125 -2.78125 1.4375 -4.640625 1.4375 -7.171875 Z M 1.4375 -7.171875 "/></g></g></g><g fill="#008037" fill-opacity="1"><g transform="translate(279.126889, 304.088576)"><g><path d="M 1.4375 -1.5 L 1.4375 -21.875 C 1.4375 -22.3125 1.660156 -22.664062 2.109375 -22.9375 C 2.554688 -23.207031 3.132812 -23.34375 3.84375 -23.34375 C 4.507812 -23.34375 5.078125 -23.207031 5.546875 -22.9375 C 6.023438 -22.664062 6.265625 -22.3125 6.265625 -21.875 L 6.265625 -12.671875 C 6.578125 -13.335938 7.070312 -13.898438 7.75 -14.359375 C 8.425781 -14.816406 9.222656 -15.046875 10.140625 -15.046875 C 11.578125 -15.046875 12.820312 -14.398438 13.875 -13.109375 C 14.925781 -11.816406 15.453125 -10.273438 15.453125 -8.484375 L 15.453125 -1.5 C 15.453125 -1.019531 15.210938 -0.648438 14.734375 -0.390625 C 14.253906 -0.128906 13.679688 0 13.015625 0 C 12.390625 0 11.832031 -0.132812 11.34375 -0.40625 C 10.851562 -0.675781 10.609375 -1.039062 10.609375 -1.5 L 10.609375 -8.484375 C 10.609375 -9.085938 10.382812 -9.628906 9.9375 -10.109375 C 9.488281 -10.585938 8.960938 -10.828125 8.359375 -10.828125 C 7.816406 -10.828125 7.332031 -10.613281 6.90625 -10.1875 C 6.476562 -9.757812 6.265625 -9.191406 6.265625 -8.484375 L 6.265625 -1.5 C 6.265625 -1.125 6.019531 -0.78125 5.53125 -0.46875 C 5.050781 -0.15625 4.488281 0 3.84375 0 C 3.15625 0 2.582031 -0.148438 2.125 -0.453125 C 1.664062 -0.753906 1.4375 -1.101562 1.4375 -1.5 Z M 1.4375 -1.5 "/></g></g></g><g fill="#008037" fill-opacity="1"><g transform="translate(295.820269, 304.088576)"><g><path d="M 0.5625 -3.84375 C 0.5625 -5.5625 1.191406 -6.773438 2.453125 -7.484375 C 3.710938 -8.191406 5.515625 -8.546875 7.859375 -8.546875 L 8.984375 -8.546875 L 8.984375 -8.859375 C 8.984375 -9.484375 8.796875 -10.023438 8.421875 -10.484375 C 8.046875 -10.941406 7.453125 -11.171875 6.640625 -11.171875 C 5.648438 -11.171875 4.832031 -11 4.1875 -10.65625 C 3.539062 -10.3125 3.144531 -10.140625 3 -10.140625 C 2.5 -10.140625 2.101562 -10.382812 1.8125 -10.875 C 1.519531 -11.363281 1.375 -11.921875 1.375 -12.546875 C 1.375 -13.234375 1.953125 -13.820312 3.109375 -14.3125 C 4.265625 -14.800781 5.460938 -15.046875 6.703125 -15.046875 C 9.097656 -15.046875 10.882812 -14.460938 12.0625 -13.296875 C 13.238281 -12.128906 13.828125 -10.671875 13.828125 -8.921875 L 13.828125 -1.5 C 13.828125 -1.082031 13.601562 -0.726562 13.15625 -0.4375 C 12.707031 -0.144531 12.140625 0 11.453125 0 C 10.847656 0 10.335938 -0.144531 9.921875 -0.4375 C 9.503906 -0.726562 9.296875 -1.082031 9.296875 -1.5 L 9.296875 -2.1875 C 7.859375 -0.519531 6.28125 0.3125 4.5625 0.3125 C 3.414062 0.3125 2.460938 -0.0390625 1.703125 -0.75 C 0.941406 -1.457031 0.5625 -2.488281 0.5625 -3.84375 Z M 5.421875 -4.53125 C 5.421875 -3.65625 5.828125 -3.21875 6.640625 -3.21875 C 7.160156 -3.21875 7.679688 -3.507812 8.203125 -4.09375 C 8.722656 -4.675781 8.984375 -5.335938 8.984375 -6.078125 L 8.984375 -6.203125 L 8.859375 -6.203125 C 8.171875 -6.203125 7.601562 -6.171875 7.15625 -6.109375 C 6.707031 -6.046875 6.304688 -5.882812 5.953125 -5.625 C 5.597656 -5.363281 5.421875 -5 5.421875 -4.53125 Z M 5.421875 -4.53125 "/></g></g></g><g fill="#008037" fill-opacity="1"><g transform="translate(310.922311, 304.088576)"><g><path d="M 1.6875 -1.5 L 1.6875 -21.875 C 1.6875 -22.3125 1.910156 -22.664062 2.359375 -22.9375 C 2.804688 -23.207031 3.382812 -23.34375 4.09375 -23.34375 C 4.78125 -23.34375 5.351562 -23.207031 5.8125 -22.9375 C 6.28125 -22.664062 6.515625 -22.3125 6.515625 -21.875 L 6.515625 -1.5 C 6.515625 -1.125 6.273438 -0.78125 5.796875 -0.46875 C 5.328125 -0.15625 4.757812 0 4.09375 0 C 3.40625 0 2.832031 -0.148438 2.375 -0.453125 C 1.914062 -0.753906 1.6875 -1.101562 1.6875 -1.5 Z M 1.6875 -1.5 "/></g></g></g><g fill="#008037" fill-opacity="1"><g transform="translate(319.128583, 304.088576)"><g><path d="M 1.6875 -1.5 L 1.6875 -21.875 C 1.6875 -22.3125 1.910156 -22.664062 2.359375 -22.9375 C 2.804688 -23.207031 3.382812 -23.34375 4.09375 -23.34375 C 4.78125 -23.34375 5.351562 -23.207031 5.8125 -22.9375 C 6.28125 -22.664062 6.515625 -22.3125 6.515625 -21.875 L 6.515625 -1.5 C 6.515625 -1.125 6.273438 -0.78125 5.796875 -0.46875 C 5.328125 -0.15625 4.757812 0 4.09375 0 C 3.40625 0 2.832031 -0.148438 2.375 -0.453125 C 1.914062 -0.753906 1.6875 -1.101562 1.6875 -1.5 Z M 1.6875 -1.5 "/></g></g></g><g fill="#008037" fill-opacity="1"><g transform="translate(327.334855, 304.088576)"><g><path d="M 0.84375 -6.296875 L 0.84375 -8.578125 C 0.84375 -10.347656 1.546875 -11.867188 2.953125 -13.140625 C 4.359375 -14.410156 6.046875 -15.046875 8.015625 -15.046875 C 9.867188 -15.046875 11.453125 -14.488281 12.765625 -13.375 C 14.078125 -12.257812 14.734375 -10.835938 14.734375 -9.109375 C 14.734375 -8.441406 14.648438 -7.898438 14.484375 -7.484375 C 14.316406 -7.066406 14.066406 -6.773438 13.734375 -6.609375 C 13.398438 -6.441406 13.09375 -6.332031 12.8125 -6.28125 C 12.53125 -6.226562 12.160156 -6.203125 11.703125 -6.203125 L 5.671875 -6.203125 L 5.671875 -6.015625 C 5.671875 -5.253906 5.960938 -4.640625 6.546875 -4.171875 C 7.128906 -3.703125 7.898438 -3.46875 8.859375 -3.46875 C 9.585938 -3.46875 10.351562 -3.660156 11.15625 -4.046875 C 11.957031 -4.429688 12.492188 -4.625 12.765625 -4.625 C 13.285156 -4.625 13.710938 -4.378906 14.046875 -3.890625 C 14.378906 -3.398438 14.546875 -2.9375 14.546875 -2.5 C 14.546875 -1.851562 13.988281 -1.222656 12.875 -0.609375 C 11.757812 0.00390625 10.378906 0.3125 8.734375 0.3125 C 6.398438 0.3125 4.5 -0.296875 3.03125 -1.515625 C 1.570312 -2.734375 0.84375 -4.328125 0.84375 -6.296875 Z M 5.671875 -8.921875 L 9.546875 -8.921875 C 9.984375 -8.921875 10.203125 -9.171875 10.203125 -9.671875 C 10.203125 -10.253906 9.976562 -10.710938 9.53125 -11.046875 C 9.082031 -11.378906 8.546875 -11.546875 7.921875 -11.546875 C 7.316406 -11.546875 6.789062 -11.378906 6.34375 -11.046875 C 5.894531 -10.710938 5.671875 -10.253906 5.671875 -9.671875 Z M 5.671875 -8.921875 "/></g></g></g><g fill="#008037" fill-opacity="1"><g transform="translate(342.811339, 304.088576)"><g><path d="M 1.40625 -1.5 L 1.40625 -13.390625 C 1.40625 -13.828125 1.628906 -14.179688 2.078125 -14.453125 C 2.523438 -14.722656 3.101562 -14.859375 3.8125 -14.859375 C 4.394531 -14.859375 4.890625 -14.722656 5.296875 -14.453125 C 5.710938 -14.179688 5.921875 -13.828125 5.921875 -13.390625 L 5.921875 -12.671875 C 6.253906 -13.335938 6.789062 -13.898438 7.53125 -14.359375 C 8.269531 -14.816406 9.128906 -15.046875 10.109375 -15.046875 C 11.546875 -15.046875 12.789062 -14.398438 13.84375 -13.109375 C 14.894531 -11.816406 15.421875 -10.273438 15.421875 -8.484375 L 15.421875 -1.5 C 15.421875 -1.019531 15.179688 -0.648438 14.703125 -0.390625 C 14.222656 -0.128906 13.648438 0 12.984375 0 C 12.359375 0 11.800781 -0.132812 11.3125 -0.40625 C 10.820312 -0.675781 10.578125 -1.039062 10.578125 -1.5 L 10.578125 -8.484375 C 10.578125 -9.085938 10.351562 -9.628906 9.90625 -10.109375 C 9.457031 -10.585938 8.929688 -10.828125 8.328125 -10.828125 C 7.785156 -10.828125 7.300781 -10.613281 6.875 -10.1875 C 6.445312 -9.757812 6.234375 -9.191406 6.234375 -8.484375 L 6.234375 -1.5 C 6.234375 -1.125 5.988281 -0.78125 5.5 -0.46875 C 5.019531 -0.15625 4.457031 0 3.8125 0 C 3.125 0 2.550781 -0.148438 2.09375 -0.453125 C 1.632812 -0.753906 1.40625 -1.101562 1.40625 -1.5 Z M 1.40625 -1.5 "/></g></g></g><g fill="#008037" fill-opacity="1"><g transform="translate(359.473506, 304.088576)"><g><path d="M 0.375 2.25 C 0.375 0.875 1.070312 -0.207031 2.46875 -1 C 1.71875 -1.4375 1.34375 -2.082031 1.34375 -2.9375 C 1.34375 -3.851562 1.875 -4.691406 2.9375 -5.453125 C 1.582031 -6.453125 0.90625 -7.773438 0.90625 -9.421875 L 0.90625 -9.890625 C 0.90625 -11.410156 1.492188 -12.648438 2.671875 -13.609375 C 3.847656 -14.566406 5.390625 -15.046875 7.296875 -15.046875 C 8.609375 -15.046875 9.785156 -14.796875 10.828125 -14.296875 C 11.179688 -15.148438 11.492188 -15.722656 11.765625 -16.015625 C 12.035156 -16.316406 12.316406 -16.46875 12.609375 -16.46875 C 13.148438 -16.46875 13.59375 -16.304688 13.9375 -15.984375 C 14.28125 -15.671875 14.453125 -15.359375 14.453125 -15.046875 C 14.453125 -14.710938 14.285156 -14.398438 13.953125 -14.109375 L 13.328125 -13.609375 C 13.015625 -13.359375 12.773438 -13.148438 12.609375 -12.984375 C 13.398438 -12.128906 13.796875 -11.097656 13.796875 -9.890625 L 13.796875 -9.421875 C 13.796875 -7.921875 13.1875 -6.675781 11.96875 -5.6875 C 10.75 -4.707031 9.191406 -4.21875 7.296875 -4.21875 C 6.609375 -4.21875 5.984375 -4.28125 5.421875 -4.40625 C 5.335938 -4.257812 5.296875 -4.125 5.296875 -4 C 5.296875 -3.707031 5.613281 -3.488281 6.25 -3.34375 C 6.882812 -3.195312 7.65625 -3.0625 8.5625 -2.9375 C 9.46875 -2.8125 10.375 -2.628906 11.28125 -2.390625 C 12.1875 -2.148438 12.957031 -1.6875 13.59375 -1 C 14.226562 -0.3125 14.546875 0.582031 14.546875 1.6875 C 14.546875 3.394531 13.859375 4.664062 12.484375 5.5 C 11.109375 6.34375 9.441406 6.765625 7.484375 6.765625 C 5.535156 6.765625 3.863281 6.359375 2.46875 5.546875 C 1.070312 4.742188 0.375 3.644531 0.375 2.25 Z M 4.9375 1.75 C 4.9375 2.351562 5.175781 2.832031 5.65625 3.1875 C 6.144531 3.539062 6.722656 3.71875 7.390625 3.71875 C 8.054688 3.71875 8.632812 3.539062 9.125 3.1875 C 9.613281 2.832031 9.859375 2.375 9.859375 1.8125 C 9.859375 1.457031 9.765625 1.164062 9.578125 0.9375 C 9.390625 0.707031 9.101562 0.523438 8.71875 0.390625 C 8.332031 0.253906 7.957031 0.148438 7.59375 0.078125 C 7.226562 0.00390625 6.753906 -0.0625 6.171875 -0.125 C 5.347656 0.3125 4.9375 0.9375 4.9375 1.75 Z M 5.578125 -9.453125 C 5.578125 -8.742188 5.734375 -8.160156 6.046875 -7.703125 C 6.359375 -7.242188 6.796875 -7.015625 7.359375 -7.015625 C 7.898438 -7.015625 8.328125 -7.238281 8.640625 -7.6875 C 8.953125 -8.132812 9.109375 -8.710938 9.109375 -9.421875 L 9.109375 -9.890625 C 9.109375 -10.554688 8.953125 -11.113281 8.640625 -11.5625 C 8.328125 -12.007812 7.890625 -12.234375 7.328125 -12.234375 C 6.785156 -12.234375 6.359375 -12.007812 6.046875 -11.5625 C 5.734375 -11.113281 5.578125 -10.554688 5.578125 -9.890625 Z M 5.578125 -9.453125 "/></g></g></g><g fill="#008037" fill-opacity="1"><g transform="translate(374.388334, 304.088576)"><g><path d="M 0.84375 -6.296875 L 0.84375 -8.578125 C 0.84375 -10.347656 1.546875 -11.867188 2.953125 -13.140625 C 4.359375 -14.410156 6.046875 -15.046875 8.015625 -15.046875 C 9.867188 -15.046875 11.453125 -14.488281 12.765625 -13.375 C 14.078125 -12.257812 14.734375 -10.835938 14.734375 -9.109375 C 14.734375 -8.441406 14.648438 -7.898438 14.484375 -7.484375 C 14.316406 -7.066406 14.066406 -6.773438 13.734375 -6.609375 C 13.398438 -6.441406 13.09375 -6.332031 12.8125 -6.28125 C 12.53125 -6.226562 12.160156 -6.203125 11.703125 -6.203125 L 5.671875 -6.203125 L 5.671875 -6.015625 C 5.671875 -5.253906 5.960938 -4.640625 6.546875 -4.171875 C 7.128906 -3.703125 7.898438 -3.46875 8.859375 -3.46875 C 9.585938 -3.46875 10.351562 -3.660156 11.15625 -4.046875 C 11.957031 -4.429688 12.492188 -4.625 12.765625 -4.625 C 13.285156 -4.625 13.710938 -4.378906 14.046875 -3.890625 C 14.378906 -3.398438 14.546875 -2.9375 14.546875 -2.5 C 14.546875 -1.851562 13.988281 -1.222656 12.875 -0.609375 C 11.757812 0.00390625 10.378906 0.3125 8.734375 0.3125 C 6.398438 0.3125 4.5 -0.296875 3.03125 -1.515625 C 1.570312 -2.734375 0.84375 -4.328125 0.84375 -6.296875 Z M 5.671875 -8.921875 L 9.546875 -8.921875 C 9.984375 -8.921875 10.203125 -9.171875 10.203125 -9.671875 C 10.203125 -10.253906 9.976562 -10.710938 9.53125 -11.046875 C 9.082031 -11.378906 8.546875 -11.546875 7.921875 -11.546875 C 7.316406 -11.546875 6.789062 -11.378906 6.34375 -11.046875 C 5.894531 -10.710938 5.671875 -10.253906 5.671875 -9.671875 Z M 5.671875 -8.921875 "/></g></g></g><path stroke-linecap="butt" transform="matrix(2.999274, 0, 0, 3.368421, 47.753471, 265.532121)" fill="none" stroke-linejoin="miter" d="M 0.000145264 -0.000258495 L 142.535952 -0.000258495 " stroke="#000000" stroke-width="1" stroke-opacity="1" stroke-miterlimit="4"/><path stroke-linecap="round" transform="matrix(2.999274, 0, 0, 3.368421, 483.50647, 265.532121)" fill-opacity="1" fill="#000000" fill-rule="nonzero" stroke-linejoin="round" d="M -2.500158 -1.499709 L -0.499674 -0.000258495 L -2.500158 1.500352 Z M -2.500158 -1.499709 " stroke="#000000" stroke-width="1" stroke-opacity="1" stroke-miterlimit="4"/></svg>